# WaveFront *.obj file (generated by Autodesk ATF)

mtllib Test.mtl

g Solid1

v -10.559519 0.000000 0.000000
v 9.737766 0.000000 0.000000
v 9.737766 0.000000 100.000000
v -10.559519 0.000000 100.000000
v 6.359411 0.239614 0.000000
v 2.975626 0.383459 0.000000
v -0.410876 0.431420 0.000000
v -3.797378 0.383459 0.000000
v -7.181164 0.239614 0.000000
v -7.181164 0.239614 100.000000
v -3.797378 0.383459 100.000000
v -0.410876 0.431420 100.000000
v 2.975626 0.383459 100.000000
v 6.359411 0.239614 100.000000
v 3.848334 0.355545 59.791536
v 7.776660 0.150801 59.791536
v -0.084601 0.430975 59.791536
v -4.017889 0.377008 59.791536
v -7.947274 0.193703 59.791536
vt 0.000000 0.000000 0.000000
vt 2.029728 0.000000 0.000000
vt 0.000000 10.000000 0.000000
vt 2.029728 10.000000 0.000000
vt -10.000000 0.000000 0.000000
vt -0.000000 0.000000 0.000000
vt -5.979154 0.196692 0.000000
vt -0.000000 0.338695 0.000000
vt -5.979154 0.590075 0.000000
vt -0.000000 0.677391 0.000000
vt -5.979154 0.983459 0.000000
vt -0.000000 1.016086 0.000000
vt -5.979154 1.376842 0.000000
vt -0.000000 1.354782 0.000000
vt -0.000000 1.693477 0.000000
vt -5.979154 1.770226 0.000000
vt -0.000000 2.032173 0.000000
vt -10.000000 2.032173 0.000000
vt -10.000000 1.693477 0.000000
vt -10.000000 1.354782 0.000000
vt -10.000000 1.016086 0.000000
vt -10.000000 0.677391 0.000000
vt -10.000000 0.338695 0.000000
vt -1.014864 -0.012333 0.000000
vt 1.014864 -0.012333 0.000000
vt -0.677029 0.011628 0.000000
vt 0.677029 0.011628 0.000000
vt -0.338650 0.026013 0.000000
vt 0.338650 0.026013 0.000000
vt -0.000000 0.030809 0.000000
vt -1.014864 -0.012333 0.000000
vt 1.014864 -0.012333 0.000000
vt -0.677029 0.011628 0.000000
vt 0.677029 0.011628 0.000000
vt -0.338650 0.026013 0.000000
vt 0.338650 0.026013 0.000000
vt 0.000000 0.030809 0.000000
vn 0.000000 -0.100000 0.000000
vn 0.000000 -0.100000 0.000000
vn 0.000000 -0.100000 0.000000
vn 0.000000 -0.100000 0.000000
vn 0.008487 0.099639 0.000000
vn 0.008487 0.099639 0.000000
vn 0.006847 0.099765 0.000000
vn 0.005662 0.099840 0.000000
vn 0.003562 0.099937 0.000000
vn 0.002832 0.099960 0.000000
vn 0.000273 0.100000 0.000000
vn 0.000000 0.100000 0.000000
vn -0.003016 0.099954 -0.000000
vn -0.002832 0.099960 -0.000000
vn -0.005662 0.099840 -0.000000
vn -0.006302 0.099801 -0.000000
vn -0.008487 0.099639 -0.000000
vn -0.008487 0.099639 -0.000000
vn -0.005662 0.099840 -0.000000
vn -0.002832 0.099960 -0.000000
vn 0.000000 0.100000 0.000000
vn 0.002832 0.099960 0.000000
vn 0.005662 0.099840 0.000000
vn 0.000000 0.000000 0.100000
vn 0.000000 0.000000 0.100000
vn 0.000000 0.000000 0.100000
vn 0.000000 0.000000 0.100000
vn 0.000000 0.000000 0.100000
vn 0.000000 0.000000 0.100000
vn 0.000000 0.000000 0.100000
vn 0.000000 0.000000 -0.100000
vn 0.000000 0.000000 -0.100000
vn 0.000000 0.000000 -0.100000
vn 0.000000 0.000000 -0.100000
vn 0.000000 0.000000 -0.100000
vn 0.000000 0.000000 -0.100000
vn 0.000000 0.000000 -0.100000
usemtl 191,191,191
f 1/1/1 2/2/2 4/3/3
f 4/3/3 2/2/2 3/4/4
f 3/5/5 2/6/6 16/7/7
f 16/7/7 2/6/6 5/8/8
f 16/7/7 5/8/8 15/9/9
f 15/9/9 5/8/8 6/10/10
f 15/9/9 6/10/10 17/11/11
f 17/11/11 6/10/10 7/12/12
f 17/11/11 7/12/12 18/13/13
f 18/13/13 7/12/12 8/14/14
f 18/13/13 8/14/14 9/15/15
f 18/13/13 9/15/15 19/16/16
f 19/16/16 9/15/15 1/17/17
f 19/16/16 1/17/17 4/18/18
f 4/18/18 10/19/19 19/16/16
f 19/16/16 10/19/19 18/13/13
f 10/19/19 11/20/20 18/13/13
f 18/13/13 11/20/20 12/21/21
f 18/13/13 12/21/21 17/11/11
f 17/11/11 12/21/21 13/22/22
f 17/11/11 13/22/22 15/9/9
f 15/9/9 13/22/22 14/23/23
f 15/9/9 14/23/23 16/7/7
f 16/7/7 14/23/23 3/5/5
f 4/24/24 3/25/25 10/26/26
f 10/26/26 3/25/25 14/27/27
f 10/26/26 14/27/27 11/28/28
f 11/28/28 14/27/27 13/29/29
f 11/28/28 13/29/29 12/30/30
f 2/31/31 1/32/32 5/33/33
f 5/33/33 1/32/32 9/34/34
f 5/33/33 9/34/34 6/35/35
f 6/35/35 9/34/34 8/36/36
f 6/35/35 8/36/36 7/37/37

# 19 vertices
# 37 texture params
# 37 normals
# 34 facets

# 1 groups
